<svg t="1741238103721" class="icon" viewBox="0 0 1024 1024" version="1.1"
  xmlns="http://www.w3.org/2000/svg" p-id="4390" width="200" height="200">
  <path
    d="M288 870.4zM172.8 902.4h224v57.6H172.8zM217.6 256h134.4v140.8h64V64h-64v134.4H217.6V64h-57.6v332.8h57.6zM396.8 576c-12.8-12.8-32-25.6-51.2-38.4-19.2-6.4-38.4-12.8-64-12.8-19.2 0-44.8 6.4-64 12.8-12.8 12.8-32 25.6-44.8 38.4-12.8 19.2-25.6 32-32 57.6-6.4 19.2-12.8 44.8-12.8 64 0 25.6 6.4 44.8 12.8 70.4 6.4 19.2 19.2 38.4 32 57.6 12.8 19.2 32 25.6 51.2 38.4 19.2 6.4 38.4 12.8 64 12.8 19.2 0 44.8-6.4 64-12.8 19.2-6.4 38.4-19.2 51.2-38.4 12.8-12.8 25.6-32 32-57.6 6.4-19.2 12.8-44.8 12.8-70.4 0-25.6-6.4-44.8-12.8-70.4-12.8-19.2-19.2-32-38.4-51.2z m-19.2 172.8l-19.2 38.4c-6.4 12.8-19.2 19.2-32 25.6-12.8 6.4-25.6 6.4-38.4 6.4-12.8 0-25.6 0-38.4-6.4-12.8-6.4-25.6-12.8-32-25.6-12.8-19.2-19.2-25.6-25.6-38.4-6.4-12.8-6.4-32-6.4-44.8 0-12.8 0-32 6.4-44.8 6.4-19.2 12.8-32 19.2-44.8 6.4-12.8 19.2-19.2 32-25.6 12.8-6.4 25.6-6.4 38.4-6.4 12.8 0 25.6 0 38.4 6.4 12.8 6.4 25.6 12.8 32 25.6 6.4 12.8 19.2 25.6 19.2 38.4 12.8 12.8 19.2 32 12.8 44.8 0 19.2 0 32-6.4 51.2zM838.4 64l-102.4 172.8L633.6 64H576v332.8h57.6V179.2l83.2 147.2h38.4l83.2-147.2V396.8h57.6V64zM825.6 704c-6.4-6.4-19.2-12.8-25.6-19.2l-38.4-19.2-19.2-6.4-38.4-19.2c-6.4 0-6.4-6.4-6.4-12.8s-6.4-6.4-6.4-12.8 0-12.8 6.4-12.8c0-6.4 6.4-6.4 12.8-12.8 12.8-6.4 19.2-12.8 32-12.8s25.6 6.4 32 12.8c6.4 6.4 12.8 12.8 19.2 25.6l57.6-25.6c0-6.4-6.4-19.2-12.8-25.6-6.4-6.4-12.8-19.2-19.2-25.6-6.4-6.4-19.2-12.8-32-19.2-12.8-6.4-25.6-6.4-44.8-6.4-12.8 0-32 0-44.8 6.4-12.8 6.4-25.6 12.8-32 19.2-12.8 25.6-25.6 32-25.6 44.8-6.4 12.8-6.4 25.6-6.4 38.4 0 12.8 0 25.6 6.4 32 6.4 12.8 12.8 19.2 19.2 25.6 6.4 6.4 12.8 12.8 25.6 19.2 6.4 6.4 19.2 6.4 25.6 12.8l19.2 6.4c12.8 6.4 19.2 6.4 32 12.8 6.4 6.4 12.8 6.4 19.2 12.8l12.8 12.8c0 6.4 6.4 12.8 6.4 19.2 0 6.4 0 12.8-6.4 19.2 0 6.4-6.4 6.4-12.8 12.8s-12.8 6.4-19.2 6.4h-19.2c-12.8 0-32-6.4-44.8-19.2-12.8-12.8-19.2-25.6-25.6-44.8l-57.6 25.6 19.2 38.4c6.4 12.8 19.2 19.2 25.6 32l38.4 19.2c12.8 6.4 25.6 6.4 38.4 6.4 12.8 0 25.6 0 38.4-6.4l38.4-19.2c12.8-6.4 19.2-19.2 25.6-32 6.4-12.8 12.8-32 12.8-44.8 0-12.8 0-25.6-6.4-38.4 0-6.4-6.4-12.8-19.2-25.6z"
    p-id="4391"></path>
</svg>